<svg xmlns="http://www.w3.org/2000/svg" width="28" height="28" viewBox="0 0 24 24" fill="none" stroke="currentColor" stroke-width="1.9285714285714286" stroke-linecap="round" stroke-linejoin="round" class="lucide lucide-users-icon lucide-users"><path d="M16 21v-2a4 4 0 0 0-4-4H6a4 4 0 0 0-4 4v2"/><path d="M16 3.128a4 4 0 0 1 0 7.744"/><path d="M22 21v-2a4 4 0 0 0-3-3.87"/><circle cx="9" cy="7" r="4"/>

<path
    transform="translate(7 4)"
    d="M16.2 10.7
       C16.2 9.8 15.5 9.1 14.6 9.1
       C13.9 9.1 13.2 9.5 12.9 10.2
       C12.6 9.5 11.9 9.1 11.2 9.1
       C10.3 9.1 9.6 9.8 9.6 10.7
       C9.6 12.1 11.2 13.3 12.9 14.8
       C14.6 13.3 16.2 12.1 16.2 10.7Z"
    fill="currentColor"
    stroke="currentColor"
    stroke-width="0.9285714285714286"
    stroke-linejoin="round"/>

</svg>